<?xml version="1.0" standalone="no"?>
<!DOCTYPE svg PUBLIC "-//W3C//DTD SVG 20010904//EN"
 "http://www.w3.org/TR/2001/REC-SVG-20010904/DTD/svg10.dtd">
<svg version="1.0" xmlns="http://www.w3.org/2000/svg"
 width="345.000000pt" height="345.000000pt" viewBox="0 0 345.000000 345.000000"
 preserveAspectRatio="xMidYMid meet">
<metadata>
Created by potrace 1.14, written by Peter Selinger 2001-2017
</metadata>
<g transform="translate(0.000000,345.000000) scale(0.100000,-0.100000)"
fill="#000000" stroke="none">
<path d="M1135 3142 c-6 -5 -43 -15 -82 -21 -40 -7 -75 -16 -78 -21 -3 -4 -21
-11 -42 -15 -37 -7 -112 -42 -124 -58 -3 -5 -9 -8 -12 -8 -11 1 -67 -34 -67
-41 0 -5 -7 -8 -15 -8 -20 0 -167 -140 -185 -177 -8 -15 -27 -47 -42 -69 -16
-23 -28 -46 -28 -52 0 -5 -6 -15 -14 -21 -7 -6 -28 -49 -46 -94 -17 -45 -38
-96 -46 -114 -8 -17 -14 -35 -14 -40 0 -5 -9 -39 -19 -74 -70 -237 -69 -438 5
-605 14 -32 29 -68 33 -79 31 -78 78 -189 101 -235 17 -35 29 -82 34 -125 11
-119 16 -134 61 -181 41 -44 65 -107 65 -168 0 -12 4 -26 9 -32 4 -5 13 -36
20 -69 18 -96 44 -175 58 -175 6 0 16 -6 20 -13 12 -20 69 -57 77 -50 3 3 6 1
6 -5 0 -6 21 -21 48 -34 26 -13 53 -29 60 -35 7 -7 17 -13 22 -13 32 0 110
-106 110 -151 0 -9 7 -30 15 -45 8 -16 15 -37 15 -46 0 -9 4 -19 8 -22 5 -3
15 -30 22 -61 7 -30 18 -54 23 -52 6 2 16 25 24 53 8 27 18 58 23 69 5 11 14
32 20 48 12 33 20 34 51 5 14 -13 50 -41 82 -62 50 -35 56 -42 50 -65 -3 -14
-9 -30 -13 -36 -4 -5 -13 -32 -20 -60 -7 -27 -17 -56 -23 -62 -7 -10 18 -13
119 -13 l129 0 22 58 c12 31 32 90 45 131 l23 75 8 -45 c9 -51 25 -176 26
-201 1 -17 26 -18 390 -18 l390 0 -25 58 c-30 67 -33 76 -68 167 -15 39 -34
83 -42 98 -8 16 -14 33 -14 39 0 12 -44 118 -71 169 -10 20 -19 40 -19 44 0 5
125 5 279 1 l278 -7 34 38 c19 21 44 54 56 74 21 33 22 41 13 105 -5 38 -17
146 -26 239 l-17 170 28 60 c52 111 26 208 -70 264 -21 12 -36 33 -45 61 -12
36 -37 75 -80 127 -5 7 -10 15 -10 18 0 3 -18 30 -40 59 -22 29 -40 57 -40 61
0 5 -8 17 -17 27 -14 15 -17 35 -14 93 l2 73 -79 88 c-50 55 -82 99 -86 118
-6 28 -34 95 -58 136 -5 8 -15 29 -22 45 -8 17 -24 42 -36 58 -12 15 -18 27
-13 27 4 0 0 5 -9 11 -10 5 -18 15 -18 20 0 6 -20 34 -45 62 -25 29 -45 55
-45 58 0 15 -179 209 -192 209 -5 0 -32 17 -61 38 -44 32 -148 86 -262 138
-16 7 -52 19 -80 25 -27 7 -52 15 -55 19 -8 11 -112 34 -137 31 -13 -1 -23 2
-23 8 0 13 -201 15 -215 3z m205 -790 c0 -5 38 -17 85 -27 47 -10 88 -22 91
-26 3 -5 9 -7 14 -4 5 3 11 1 15 -5 3 -5 15 -10 26 -10 23 0 25 -13 2 -31 -9
-8 -29 -31 -44 -52 l-27 -38 -96 92 c-96 91 -109 109 -81 109 8 0 15 -4 15 -8z
m-610 -60 c0 -4 9 -12 19 -17 59 -30 261 -129 291 -142 19 -9 43 -20 53 -25
10 -5 27 -6 38 -3 10 4 19 2 19 -3 0 -6 22 -13 50 -17 27 -4 53 -11 56 -17 3
-5 20 -8 38 -7 17 1 38 -1 46 -4 8 -3 48 -8 88 -11 39 -2 76 -7 82 -11 5 -3 1
-25 -11 -53 -19 -45 -20 -58 -3 -124 4 -19 2 -28 -6 -28 -7 0 -27 -7 -46 -16
l-33 -16 -50 53 -49 54 -94 0 c-58 0 -100 -5 -109 -12 -8 -6 -36 -17 -62 -23
-26 -7 -47 -16 -47 -20 0 -4 -18 -13 -40 -20 -22 -7 -40 -17 -40 -22 0 -4 -6
-8 -12 -8 -7 0 -38 -20 -68 -43 -134 -106 -131 -218 9 -358 57 -57 72 -67 113
-73 52 -8 108 0 147 20 14 8 30 14 34 14 9 0 82 32 142 62 47 23 98 70 126
115 17 27 20 47 18 119 l-2 87 54 22 53 23 17 -26 c26 -45 83 -88 137 -105 49
-16 54 -16 129 4 42 12 84 25 92 29 9 5 50 24 91 43 78 37 141 91 159 140 15
40 13 175 -4 222 -8 21 -12 41 -9 44 6 6 94 -80 94 -93 0 -5 16 -29 36 -53 20
-25 55 -79 77 -121 l40 -77 1 -176 c1 -116 -3 -181 -10 -190 -6 -8 -15 -32
-19 -54 -4 -22 -13 -51 -20 -65 -8 -14 -26 -52 -41 -85 -15 -33 -42 -78 -60
-101 -19 -23 -34 -45 -34 -49 0 -7 -48 -61 -106 -119 -27 -28 -63 -56 -70 -56
-3 0 -19 -11 -36 -25 -16 -14 -36 -25 -44 -25 -8 0 -14 -4 -14 -9 0 -14 -80
-49 -140 -61 -30 -6 -66 -17 -79 -23 -30 -15 -360 -15 -370 0 -3 6 -28 14 -56
18 -27 4 -61 13 -75 20 -14 7 -44 20 -68 29 -23 9 -60 27 -82 41 -22 14 -44
25 -50 25 -15 0 -210 198 -210 214 0 8 -11 38 -25 68 -14 29 -25 67 -25 83 0
17 -6 37 -12 43 -9 9 -14 63 -17 175 -1 89 -7 167 -13 174 -5 7 -7 17 -3 23 4
6 2 16 -3 23 -5 7 -13 32 -17 57 -4 25 -10 50 -14 55 -25 36 -55 191 -39 201
4 3 8 26 8 52 0 26 7 74 16 107 8 33 18 71 21 85 3 14 10 31 16 38 11 13 27
16 27 4z m1009 -53 c116 -15 120 -17 87 -34 -16 -8 -34 -15 -41 -15 -17 0
-187 -87 -195 -100 -3 -5 -21 5 -39 24 l-32 33 57 52 c32 28 62 51 68 51 5 0
48 -5 95 -11z m314 -92 c29 -22 54 -89 64 -167 10 -77 -53 -162 -143 -194 -21
-7 -66 -27 -99 -42 -49 -24 -73 -29 -133 -29 -72 0 -73 0 -111 41 -48 52 -57
74 -31 74 13 0 20 10 25 33 8 37 47 108 70 127 15 13 16 10 10 -23 -10 -50 -1
-80 36 -116 57 -58 146 -33 170 48 14 49 -7 103 -52 130 -27 17 -30 21 -16 27
23 9 83 -4 128 -26 36 -19 59 -13 59 15 0 38 -123 81 -198 70 -109 -15 -212
-96 -248 -193 -24 -66 -31 -70 -39 -24 -8 49 15 105 54 130 14 9 33 23 40 31
18 16 156 81 174 81 7 0 17 4 23 9 14 14 43 19 119 20 59 1 75 -3 98 -22z
m-736 -331 c43 -47 42 -61 -4 -38 -57 28 -129 45 -166 39 -56 -9 -141 -46
-179 -77 -39 -33 -85 -116 -90 -165 -3 -26 1 -30 22 -33 22 -2 27 3 38 40 14
45 56 108 72 108 5 0 7 -13 4 -29 -21 -103 97 -181 174 -116 67 56 58 133 -23
190 -18 13 -16 14 28 15 29 0 64 -8 89 -21 37 -19 42 -19 56 -5 15 14 17 13
29 -15 40 -96 -8 -186 -130 -243 -208 -97 -284 -101 -357 -19 -80 90 -96 158
-52 220 27 38 132 109 185 125 20 6 37 15 37 19 0 4 15 11 33 14 17 4 37 11
42 15 15 12 64 18 115 15 36 -2 50 -10 77 -39z"/>
<path d="M949 2003 c-67 -22 -139 -97 -146 -152 -7 -48 9 -55 26 -13 36 85
114 130 255 144 55 5 103 12 106 14 26 26 -168 32 -241 7z"/>
<path d="M1457 1553 c5 -157 7 -169 40 -199 36 -33 131 -33 171 1 2 2 -1 12
-7 23 -9 17 -16 19 -47 12 -19 -5 -38 -11 -41 -14 -10 -9 -61 26 -66 46 -3 11
-3 52 0 92 3 40 3 94 -1 120 -6 39 -11 46 -30 46 -23 0 -23 0 -19 -127z"/>
<path d="M1921 1312 c-7 -12 -9 -27 -6 -32 10 -16 -33 -46 -102 -70 -38 -13
-107 -43 -155 -67 -94 -46 -122 -52 -136 -27 -13 23 -48 14 -44 -11 11 -61 85
-66 180 -11 35 20 66 36 69 36 3 0 19 6 36 14 18 8 56 22 86 31 92 30 139 91
103 136 l-19 23 -12 -22z"/>
</g>
</svg>
